<?xml version="1.0" standalone="no"?>
<!DOCTYPE svg PUBLIC "-//W3C//DTD SVG 20010904//EN"
 "http://www.w3.org/TR/2001/REC-SVG-20010904/DTD/svg10.dtd">
<svg version="1.0" xmlns="http://www.w3.org/2000/svg"
 width="512.000000pt" height="512.000000pt" viewBox="0 0 512.000000 512.000000"
 preserveAspectRatio="xMidYMid meet">

<g transform="translate(0.000000,512.000000) scale(0.100000,-0.100000)"
fill="#000000" stroke="none">
<path d="M102 4973 c-40 -8 -90 -67 -97 -115 -3 -24 -5 -839 -3 -1813 3 -1743
3 -1770 23 -1803 11 -18 38 -41 60 -52 40 -19 65 -20 963 -20 l922 0 0 -384 0
-385 -312 -3 c-283 -3 -316 -5 -348 -22 -76 -40 -114 -101 -113 -181 0 -57 18
-97 60 -137 64 -61 -14 -58 1320 -58 1157 0 1220 1 1258 19 79 36 135 131 119
204 -9 42 -37 98 -60 118 -60 53 -69 54 -401 57 l-313 3 0 385 0 384 907 0
c883 0 908 1 948 20 22 11 49 34 60 52 20 33 20 57 20 1838 0 1729 -1 1806
-18 1832 -10 15 -30 35 -45 45 -26 17 -126 18 -2477 19 -1347 1 -2460 -1
-2473 -3z m4631 -182 c28 -19 54 -46 67 -70 20 -40 20 -48 20 -1598 0 -1528 0
-1559 -20 -1590 -10 -18 -34 -40 -52 -50 -31 -17 -132 -18 -2188 -18 -2056 0
-2157 1 -2188 18 -18 10 -42 32 -52 50 -20 31 -20 62 -20 1591 l0 1559 25 43
c14 24 44 54 68 68 l42 26 2126 0 2125 0 47 -29z"/>
<path d="M2789 4258 c-16 -18 -55 -65 -86 -105 l-56 -71 -36 24 c-44 29 -61
30 -95 3 -19 -15 -26 -30 -26 -55 0 -29 8 -40 67 -89 108 -89 109 -89 272 113
99 124 109 151 68 190 -34 32 -72 28 -108 -10z"/>
<path d="M3345 4145 c-17 -16 -25 -35 -25 -60 0 -25 8 -44 25 -60 l24 -25 499
0 499 0 23 25 c33 36 31 91 -5 122 l-26 23 -495 0 -495 0 -24 -25z"/>
<path d="M2813 3344 c-6 -3 -46 -48 -88 -100 -41 -52 -79 -94 -83 -94 -4 0
-18 9 -32 20 -52 41 -120 8 -120 -58 0 -26 10 -39 58 -78 70 -57 93 -68 125
-60 37 9 247 272 247 308 0 50 -56 82 -107 62z"/>
<path d="M3341 3204 c-29 -37 -27 -89 4 -119 l24 -25 491 0 c333 0 498 3 512
11 25 13 50 72 41 96 -3 10 -15 28 -26 41 l-20 22 -503 0 -503 0 -20 -26z"/>
<path d="M2803 2393 c-11 -10 -48 -53 -82 -95 -34 -43 -66 -80 -72 -83 -5 -4
-24 3 -43 14 -42 26 -57 26 -90 0 -19 -15 -26 -30 -26 -55 0 -29 8 -40 67 -89
58 -48 73 -55 103 -53 31 3 45 16 147 141 122 150 133 175 90 215 -28 27 -68
28 -94 5z"/>
<path d="M3345 2265 c-17 -16 -25 -35 -25 -60 0 -25 8 -44 25 -60 l24 -25 499
0 499 0 22 24 c33 35 31 93 -4 123 l-26 23 -495 0 -495 0 -24 -25z"/>
</g>
</svg>
